<svg id="Слой_2" data-name="Слой 2" xmlns="http://www.w3.org/2000/svg" viewBox="0 0 400 400"><title>arrow_horizontal</title><path d="M5.91,188.77c14.72.16,29.5-.27,44.25-.52,7.39-.11,14.76-.17,22.14-.34l22.15-.23q44.28-.36,88.58.34c29.54.47,59.07,1.24,88.6,2.55s59.08,3,88.52,6.52l-.07,1.43c-14.79.46-29.55.68-44.32,1s-29.53.54-44.3.68q-44.29.39-88.6-.12c-29.53-.36-59.07-1.06-88.6-2.43-7.38-.31-14.77-.74-22.15-1.14s-14.77-1-22.15-1.47c-14.75-1.27-29.53-2.25-44.22-4.89Z"/><path d="M290.91,124.11a155.6,155.6,0,0,0,9,13.31c1.57,2.13,3.26,4.17,5,6.15s3.5,3.92,5.34,5.78a138.47,138.47,0,0,0,24.61,19.52c8.9,5.66,18.4,10.51,28,15.44,4.81,2.47,9.63,5,14.37,7.79s9.42,5.88,13.24,10h0l1.32.77-1.71.49c-10.4,3-20.66,5.84-30.82,8.93s-20.2,6.34-30,10.1a193.5,193.5,0,0,0-28.39,13.34,92.53,92.53,0,0,0-24.35,19.69l-1.2-.78A55.12,55.12,0,0,1,284.6,241a72.74,72.74,0,0,1,5.93-5.85q3.11-2.78,6.47-5.24a131.1,131.1,0,0,1,29-15.73,175.58,175.58,0,0,1,31.41-9.27q8-1.59,16.16-2.39a120.4,120.4,0,0,1,16.34-.57l-.39,1.26h0A85.67,85.67,0,0,0,375.26,196c-4.93-2.08-10-4-15-6a192.6,192.6,0,0,1-29.52-14.58,104,104,0,0,1-25.36-21.65,82,82,0,0,1-15.77-29.07Z"/></svg>