<?xml version="1.0" encoding="utf-8"?>
<!-- Generator: Adobe Illustrator 22.1.0, SVG Export Plug-In . SVG Version: 6.00 Build 0)  -->
<svg version="1.1" id="Слой_2_1_" xmlns="http://www.w3.org/2000/svg" xmlns:xlink="http://www.w3.org/1999/xlink" x="0px"
	 y="0px" viewBox="0 0 400 400" style="enable-background:new 0 0 400 400;" xml:space="preserve">
<title>arrow_horizontal</title>
<path d="M391.6,190.8c-14.7-0.2-29.5,0.3-44.2,0.5c-7.4,0.1-14.8,0.2-22.1,0.3l-22.1,0.2c-29.5,0.2-59,0.1-88.6-0.3
	c-29.5-0.5-59.1-1.2-88.6-2.6s-59.1-3-88.5-6.5l0.1-1.4c14.8-0.5,29.5-0.7,44.3-1s29.5-0.5,44.3-0.7c29.5-0.3,59.1-0.2,88.6,0.1
	c29.5,0.4,59.1,1.1,88.6,2.4c7.4,0.3,14.8,0.7,22.2,1.1s14.8,1,22.1,1.5c14.8,1.3,29.5,2.2,44.2,4.9L391.6,190.8z"/>
<path d="M106.6,255.4c-2.8-4.6-5.8-9-9-13.3c-1.6-2.1-3.3-4.2-5-6.1s-3.5-3.9-5.3-5.8c-7.4-7.4-15.7-14-24.6-19.5
	c-8.9-5.7-18.4-10.5-28-15.4c-4.8-2.5-9.6-5-14.4-7.8s-9.4-5.9-13.2-10l0,0l-1.3-0.8l1.7-0.5c10.4-3,20.7-5.8,30.8-8.9
	s20.2-6.3,30-10.1c9.8-3.7,19.3-8.1,28.4-13.3c9.2-5.1,17.4-11.8,24.4-19.7l1.2,0.8c-2.4,5-5.5,9.6-9.3,13.6c-1.9,2.1-3.8,4-5.9,5.9
	c-2.1,1.9-4.2,3.6-6.5,5.2c-9,6.4-18.7,11.7-29,15.7c-10.2,4.1-20.7,7.2-31.4,9.3c-5.3,1.1-10.7,1.9-16.2,2.4
	c-5.4,0.6-10.9,0.8-16.3,0.6l0.4-1.3l0,0c4.5,2.8,9.3,5.3,14.3,7.2c4.9,2.1,10,4,15,6c10.2,4,20.1,8.9,29.5,14.6
	c9.6,5.8,18.1,13.1,25.4,21.6c7.2,8.5,12.5,18.4,15.8,29.1L106.6,255.4z"/>
</svg>
