<svg id="Слой_2" data-name="Слой 2" xmlns="http://www.w3.org/2000/svg" viewBox="0 0 400 400"><title>arrow_long-02</title><path d="M10.62,188.79c14.37.16,28.78-.26,43.17-.5s28.8-.45,43.2-.56q43.2-.36,86.41.33c28.81.46,57.61,1.21,86.42,2.48,7.2.34,14.4.68,21.6,1.09s14.4.83,21.6,1.34,14.4,1,21.59,1.69,14.39,1.4,21.56,2.25l-.08,1.39c-28.84.78-57.63,1.4-86.44,1.69s-57.61.25-86.42-.11-57.61-1-86.42-2.37C82.4,196.84,68,196,53.6,195c-14.39-1.24-28.81-2.19-43.14-4.78Z"/><path d="M288.62,125.72a151.82,151.82,0,0,0,8.76,13c1.54,2.08,3.18,4.07,4.88,6s3.41,3.82,5.21,5.64a135.71,135.71,0,0,0,24,19c8.69,5.52,18,10.25,27.34,15.06,4.68,2.41,9.39,4.89,14,7.6s9.19,5.74,12.91,9.73h0l1.29.74-1.66.48c-10.14,2.92-20.15,5.7-30.06,8.72s-19.71,6.18-29.29,9.85a190,190,0,0,0-27.69,13,90.46,90.46,0,0,0-23.75,19.21l-1.18-.75a54,54,0,0,1,9.08-13.33,67.71,67.71,0,0,1,5.79-5.7c2-1.81,4.12-3.51,6.3-5.11a127.67,127.67,0,0,1,28.3-15.35,170.52,170.52,0,0,1,30.64-9q7.83-1.55,15.76-2.33a114.53,114.53,0,0,1,15.94-.56l-.38,1.23h0a84.59,84.59,0,0,0-13.92-7c-4.81-2-9.74-3.88-14.64-5.89a188.07,188.07,0,0,1-28.79-14.21,101.4,101.4,0,0,1-24.74-21.13,80,80,0,0,1-15.39-28.35Z"/></svg>