<svg id="Слой_2" data-name="Слой 2" xmlns="http://www.w3.org/2000/svg" viewBox="0 0 1233 567"><title>arrow_long-02</title><path d="M463.18,263.14c-.77-1.22-1.54-2.42-2.39-3.54a32.14,32.14,0,0,0-2.76-3.17,36.15,36.15,0,0,0-6.54-5.19c-2.36-1.51-4.9-2.79-7.45-4.11-1.28-.66-2.56-1.33-3.82-2.07a16.17,16.17,0,0,1-3.52-2.65l-.32-.34h.42c5.52-1.58,10.95-3.07,16.18-5a53.63,53.63,0,0,0,7.55-3.55,25.26,25.26,0,0,0,6.48-5.24l.32.2a18,18,0,0,1-5.78,6.58,34.49,34.49,0,0,1-7.71,4.18,46.57,46.57,0,0,1-8.36,2.47,38.51,38.51,0,0,1-8.64.79h0l.11-.33a24,24,0,0,0,3.79,1.9l4,1.61a50.64,50.64,0,0,1,7.85,3.88,27.47,27.47,0,0,1,6.74,5.75,22,22,0,0,1,4.21,7.73Z"/><path d="M448,243.5c34.44-3.69,69.08-5.53,103.72-6.19s69.33.06,104,1.92q25.95,1.38,51.87,3.53t51.74,4.93c34.46,3.51,68.81,7.94,103.2,11.18,17.19,1.64,34.4,3,51.6,3.43,8.59.2,17.18.1,25.73-.4a168,168,0,0,0,25.36-3.26A91.65,91.65,0,0,0,989,250.3a60.75,60.75,0,0,0,19.28-15.78A70.25,70.25,0,0,0,1020,212.31a119.17,119.17,0,0,0,5.1-25c.23-2.13.39-4.26.54-6.4s.29-4.28.25-6.36a43.12,43.12,0,0,0-1.86-12.32,44,44,0,0,0-13.93-20.45,81.64,81.64,0,0,0-21.9-12.9,155.66,155.66,0,0,0-24.56-7.64c-16.79-3.82-34-5.68-51.25-6.58a443.34,443.34,0,0,0-51.81.34l-.08-1c8.64-.75,17.3-1.14,26-1.34s17.34-.13,26,.19c17.32.71,34.67,2.39,51.69,6.07a157.32,157.32,0,0,1,25,7.5,84.63,84.63,0,0,1,22.8,13.11,52.6,52.6,0,0,1,9.09,9.75,43.51,43.51,0,0,1,6,12,46.18,46.18,0,0,1,2.15,13.23c0,1.12,0,2.24,0,3.34l-.15,3.28c-.13,2.18-.26,4.36-.48,6.53a121.87,121.87,0,0,1-5,25.84,74.28,74.28,0,0,1-12.13,23.59,65.08,65.08,0,0,1-20.41,17.11,96.23,96.23,0,0,1-24.91,9.07,174.51,174.51,0,0,1-26,3.67c-8.72.62-17.45.75-26.16.62-17.42-.27-34.75-1.51-52-3.07S827.42,261,810.22,259l-51.58-5.82Q732.86,250.38,707,248t-51.69-4.16c-34.49-2.29-69.06-3.58-103.64-3.49s-69.15,1.59-103.65,4.16Z"/></svg>