<svg id="Слой_2" data-name="Слой 2" xmlns="http://www.w3.org/2000/svg" viewBox="0 0 1233 567"><title>arrow_horizontal_split</title><path d="M292.44,283.52c-1.22.76-2.42,1.53-3.54,2.39a30.94,30.94,0,0,0-3.17,2.75,36.2,36.2,0,0,0-5.2,6.54c-1.51,2.37-2.79,4.9-4.11,7.45-.65,1.28-1.32,2.56-2.06,3.82A16,16,0,0,1,271.7,310l-.33.32v-.42h0c-1.58-5.52-3.07-10.94-5.06-16.18a52.54,52.54,0,0,0-3.55-7.55,24.85,24.85,0,0,0-5.24-6.48l.21-.32a18,18,0,0,1,6.57,5.78,34.53,34.53,0,0,1,4.19,7.71,47.4,47.4,0,0,1,2.47,8.36,39.1,39.1,0,0,1,.79,8.64h0l-.34-.1a22.47,22.47,0,0,0,1.9-3.8l1.62-4a50.58,50.58,0,0,1,3.87-7.85,27.91,27.91,0,0,1,5.76-6.74,21.77,21.77,0,0,1,7.73-4.2Z"/><path d="M892.18,470.14c-.76-1.2-1.52-2.37-2.37-3.47a29.84,29.84,0,0,0-2.73-3.09,32.88,32.88,0,0,0-6.55-4.93c-2.38-1.41-4.92-2.56-7.48-3.77-1.29-.59-2.58-1.21-3.84-1.91a14.18,14.18,0,0,1-3.51-2.56l-.32-.34h.42c2.78-.81,5.51-1.68,8.21-2.6s5.36-1.92,8-3a58.5,58.5,0,0,0,7.53-3.83,27.5,27.5,0,0,0,6.5-5.4l.32.2a19.08,19.08,0,0,1-5.76,6.71,36.52,36.52,0,0,1-7.66,4.47,48.41,48.41,0,0,1-8.34,2.81,34.69,34.69,0,0,1-8.73,1h0l.11-.33a19.65,19.65,0,0,0,3.76,1.79c1.3.51,2.64.95,4,1.45a49.31,49.31,0,0,1,7.88,3.52,25.73,25.73,0,0,1,6.79,5.51,20.86,20.86,0,0,1,4.18,7.6Z"/><path d="M274.5,294.62c.79-5.22.53-10.52.82-15.88a46.61,46.61,0,0,1,1.05-8,32,32,0,0,1,2.81-7.67,41.89,41.89,0,0,1,10.36-12.47c1-.88,2-1.66,3.14-2.55a22,22,0,0,1,3.6-2.14,43.15,43.15,0,0,1,7.71-2.72,112.18,112.18,0,0,1,15.88-2.73c5.33-.58,10.66-.94,16-1.18,10.67-.47,21.33-.49,32-.34,21.31.34,42.59,1.38,63.84,2.59s42.49,2.66,63.72,4.15c42.45,3,84.88,6.13,127.33,8.84q31.83,2,63.68,3.49c21.23,1,42.47,1.79,63.71,2.2,42.46.73,85,.52,127.24-3.38,21.09-2,42.13-4.83,62.71-9.66A238,238,0,0,0,970.35,238a130.65,130.65,0,0,0,27.88-14.31c8.53-5.95,16.1-13.4,21-22.47a54.56,54.56,0,0,0,6.46-29.8,41,41,0,0,0-3.9-14.76,44.21,44.21,0,0,0-9-12.41c-7.42-7.26-16.84-12.34-26.59-16.2a172.57,172.57,0,0,0-30.48-8.49,297.49,297.49,0,0,0-31.51-4.15c-10.58-.85-21.19-1.28-31.81-1.36s-21.26.17-31.85.92l-.08-1c10.62-.91,21.27-1.32,31.92-1.43s21.32.17,32,.93a298.54,298.54,0,0,1,31.78,3.84,175.44,175.44,0,0,1,31,8.28c10,3.84,19.78,8.94,27.72,16.52a47.17,47.17,0,0,1,9.79,13.16,44.06,44.06,0,0,1,4.38,15.87,58.27,58.27,0,0,1-1,16.36,56.3,56.3,0,0,1-5.57,15.44c-5.18,9.74-13.14,17.67-22,23.94a134.68,134.68,0,0,1-28.63,15,241.45,241.45,0,0,1-30.72,9.56c-20.83,5.08-42,8.16-63.28,10.33s-42.57,3.25-63.88,3.84q-16,.43-32,.47t-32-.3c-21.3-.4-42.59-1.16-63.87-2.16s-42.53-2.32-63.77-3.74c-42.48-2.8-84.9-6.38-127.31-9.79-21.2-1.7-42.4-3.42-63.62-4.89S389,242.5,367.8,241.91c-10.62-.28-21.24-.38-31.83,0-5.3.18-10.59.47-15.85,1a109.52,109.52,0,0,0-15.57,2.48,40.5,40.5,0,0,0-7.35,2.49,19.49,19.49,0,0,0-3.27,1.89c-1,.77-2.09,1.6-3.09,2.43a39.72,39.72,0,0,0-10.13,11.72,30.52,30.52,0,0,0-2.8,7.23,46.43,46.43,0,0,0-1.15,7.75c-.38,5.25-.32,10.64-1.27,15.95Z"/><path d="M1029.22,177.24a600.51,600.51,0,0,1,6.67,94.81A439.79,439.79,0,0,1,1033,319.6a298.38,298.38,0,0,1-9,46.92c-4.43,15.33-10.51,30.38-19.44,43.86a96,96,0,0,1-15.75,18.41A77.18,77.18,0,0,1,968.5,442c-1.86.83-3.75,1.57-5.67,2.24s-3.8,1.21-5.7,1.82-3.81,1.16-5.72,1.71l-2.87.82-2.9.74A131.2,131.2,0,0,1,922,453.29a203.49,203.49,0,0,1-23.83-.25c-7.89-.42-15.77-.81-23.66-1v-1c7.91-.23,15.82-.18,23.72-.09a233,233,0,0,0,23.53-.65,128.33,128.33,0,0,0,22.92-4.5l2.82-.8,2.8-.89c1.86-.6,3.73-1.17,5.58-1.84s3.72-1.29,5.53-2,3.58-1.38,5.32-2.19a72.51,72.51,0,0,0,19.06-12.7,91.2,91.2,0,0,0,14.77-17.68c8.43-13,14.13-27.66,18.38-42.65a291.54,291.54,0,0,0,8.81-46.07c1.82-15.59,2.63-31.29,3-47s0-31.47-.9-47.19-2.12-31.45-4-47Z"/></svg>