<svg id="Слой_2" data-name="Слой 2" xmlns="http://www.w3.org/2000/svg" viewBox="0 0 1233 567"><title>arrow_long-02-03</title><path d="M866.18,301.14c-.77-1.22-1.54-2.42-2.39-3.54a32.14,32.14,0,0,0-2.76-3.17,36.15,36.15,0,0,0-6.54-5.19c-2.36-1.51-4.9-2.79-7.45-4.11-1.28-.66-2.56-1.33-3.82-2.07a16.17,16.17,0,0,1-3.52-2.65l-.32-.34h.42c5.52-1.58,11-3.07,16.18-5.05a53.63,53.63,0,0,0,7.55-3.55,25.26,25.26,0,0,0,6.48-5.24l.32.2a18,18,0,0,1-5.78,6.58,34.49,34.49,0,0,1-7.71,4.18,46.57,46.57,0,0,1-8.36,2.47,38.51,38.51,0,0,1-8.64.79h0l.11-.33a24,24,0,0,0,3.79,1.9l4,1.61a50.64,50.64,0,0,1,7.85,3.88,27.47,27.47,0,0,1,6.74,5.75,22,22,0,0,1,4.21,7.73Z"/><path d="M850.93,281.62c6.35-1.28,12.76-2.24,19.19-3.06s12.87-1.45,19.33-1.95c12.91-1,25.86-1.51,38.8-1.81s25.88-.37,38.8-.51,25.84-.28,38.71-.84,25.73-1.42,38.43-3.2,25.27-4.42,37.25-8.73A105.17,105.17,0,0,0,1114.36,243a93.27,93.27,0,0,0,23-29.87,138,138,0,0,0,11.69-36.35c1.18-6.3,2-12.67,2.61-19.07.29-3.2.53-6.4.7-9.61.09-1.61.17-3.22.22-4.82l.08-2.4,0-2.4a151.69,151.69,0,0,0-1.32-19.17,133.53,133.53,0,0,0-3.82-18.82,105.24,105.24,0,0,0-44.45-60.62,144.63,144.63,0,0,0-34.73-16.48A205.44,205.44,0,0,0,1030.64,15c-6.4-.82-12.83-1.36-19.27-1.66a191.92,191.92,0,0,0-19.34,0l-.06-.78a193.8,193.8,0,0,1,19.43-.23c6.48.23,12.94.7,19.38,1.47a200.93,200.93,0,0,1,38,8,146.46,146.46,0,0,1,35.26,16.43,107.35,107.35,0,0,1,45.71,61.47,136.06,136.06,0,0,1,4,19.13,154.9,154.9,0,0,1,1.48,19.49l0,2.44,0,2.45c0,1.63-.09,3.25-.15,4.87-.12,3.25-.32,6.5-.56,9.74-.52,6.48-1.26,13-2.37,19.38a141.39,141.39,0,0,1-11.44,37.44,95.4,95.4,0,0,1-23.65,31.41,97.83,97.83,0,0,1-16.19,11.37,120,120,0,0,1-18,8.14,183.12,183.12,0,0,1-38.15,8.88,384.16,384.16,0,0,1-38.87,2.93c-25.94.72-51.79-.09-77.63,0s-51.67,1-77.21,4.94Z"/></svg>