<?xml version="1.0" encoding="utf-8"?>
<!-- Generator: Adobe Illustrator 22.1.0, SVG Export Plug-In . SVG Version: 6.00 Build 0)  -->
<svg version="1.1" id="Слой_2_1_" xmlns="http://www.w3.org/2000/svg" xmlns:xlink="http://www.w3.org/1999/xlink" x="0px"
	 y="0px" viewBox="0 0 400 400" style="enable-background:new 0 0 400 400;" xml:space="preserve">
<title>arrow_horizontal</title>
<path d="M199.8,6.9c-0.2,14.7,0.3,29.5,0.5,44.2c0.1,7.4,0.2,14.8,0.3,22.1l0.2,22.2c0.2,29.5,0.1,59-0.3,88.6
	c-0.5,29.5-1.2,59.1-2.6,88.6s-3,59.1-6.5,88.5l-1.4-0.1c-0.5-14.8-0.7-29.5-1-44.3s-0.5-29.5-0.7-44.3c-0.3-29.5-0.2-59.1,0.1-88.6
	c0.4-29.5,1.1-59.1,2.4-88.6c0.3-7.4,0.7-14.8,1.1-22.2s1-14.8,1.5-22.2c1.3-14.8,2.2-29.5,4.9-44.2L199.8,6.9z"/>
<path d="M264.4,291.9c-4.6,2.8-9,5.8-13.3,9c-2.1,1.6-4.2,3.3-6.1,5s-3.9,3.5-5.8,5.3c-7.4,7.4-14,15.7-19.5,24.6
	c-5.7,8.9-10.5,18.4-15.4,28c-2.5,4.8-5,9.6-7.8,14.4s-5.9,9.4-10,13.2l0,0l-0.8,1.3l-0.5-1.7c-3-10.4-5.8-20.7-8.9-30.8
	s-6.3-20.2-10.1-30c-3.7-9.8-8.1-19.3-13.3-28.4c-5.1-9.2-11.8-17.4-19.7-24.4l0.8-1.2c5,2.4,9.6,5.5,13.6,9.3
	c2.1,1.9,4,3.8,5.9,5.9c1.9,2.1,3.6,4.2,5.2,6.5c6.4,9,11.7,18.7,15.7,29c4.1,10.2,7.2,20.7,9.3,31.4c1.1,5.3,1.9,10.7,2.4,16.2
	c0.6,5.4,0.8,10.9,0.6,16.3l-1.3-0.4l0,0c2.8-4.5,5.3-9.3,7.2-14.3c2.1-4.9,4-10,6-15c4-10.2,8.9-20.1,14.6-29.5
	c5.8-9.6,13.1-18.1,21.6-25.4c8.5-7.2,18.4-12.5,29.1-15.8L264.4,291.9z"/>
</svg>
